<svg width="21" height="19" viewBox="0 0 21 19" fill="none" xmlns="http://www.w3.org/2000/svg">
<path d="M7.47363 13.6553C6.7998 13.6553 6.28125 13.4648 5.91797 13.084C5.56055 12.7031 5.33203 12.1846 5.23242 11.5283L3.87012 2.20312H1.11035C0.887695 2.20312 0.694336 2.12109 0.530273 1.95703C0.37207 1.79297 0.292969 1.59668 0.292969 1.36816C0.292969 1.15137 0.37207 0.960938 0.530273 0.796875C0.694336 0.632812 0.887695 0.550781 1.11035 0.550781H4.11621C4.6084 0.550781 4.94824 0.647461 5.13574 0.84082C5.3291 1.02832 5.45215 1.30957 5.50488 1.68457L6.91113 11.3438C6.94043 11.5723 7.01953 11.7568 7.14844 11.8975C7.2832 12.0381 7.45605 12.1084 7.66699 12.1084H17.7041C17.9092 12.1084 18.0879 12.1816 18.2402 12.3281C18.3984 12.4688 18.4775 12.6533 18.4775 12.8818C18.4775 13.1045 18.3984 13.2891 18.2402 13.4355C18.0879 13.582 17.9092 13.6553 17.7041 13.6553H7.47363ZM5.93555 10.4385L5.91797 8.88281H17.5986C17.8154 8.88281 17.9854 8.81543 18.1084 8.68066C18.2373 8.54004 18.3164 8.35547 18.3457 8.12695L18.9082 4.21582H5.15332L5.14453 2.65137H19.752C20.0566 2.65137 20.291 2.7334 20.4551 2.89746C20.625 3.05566 20.71 3.25781 20.71 3.50391C20.71 3.55664 20.707 3.61816 20.7012 3.68848C20.6953 3.75293 20.6865 3.81445 20.6748 3.87305L20.0156 8.28516C19.916 8.95898 19.6846 9.48633 19.3213 9.86719C18.958 10.248 18.4395 10.4385 17.7656 10.4385H5.93555ZM8.18555 18.0498C7.9043 18.0498 7.64648 17.9824 7.41211 17.8477C7.18359 17.7129 6.99902 17.5283 6.8584 17.2939C6.72363 17.0654 6.65625 16.8105 6.65625 16.5293C6.65625 16.248 6.72363 15.9902 6.8584 15.7559C6.99902 15.5273 7.18359 15.3428 7.41211 15.2021C7.64648 15.0674 7.9043 15 8.18555 15C8.60742 15 8.96777 15.1465 9.2666 15.4395C9.56543 15.7383 9.71484 16.1016 9.71484 16.5293C9.71484 16.9512 9.56543 17.3086 9.2666 17.6016C8.96777 17.9004 8.60742 18.0498 8.18555 18.0498ZM16.3154 18.0498C15.8936 18.0498 15.5332 17.9004 15.2344 17.6016C14.9355 17.3086 14.7861 16.9512 14.7861 16.5293C14.7861 16.248 14.8535 15.9902 14.9883 15.7559C15.1289 15.5273 15.3135 15.3428 15.542 15.2021C15.7764 15.0674 16.0342 15 16.3154 15C16.7432 15 17.1035 15.1465 17.3965 15.4395C17.6953 15.7383 17.8447 16.1016 17.8447 16.5293C17.8447 16.9512 17.6953 17.3086 17.3965 17.6016C17.1035 17.9004 16.7432 18.0498 16.3154 18.0498Z" fill="black"/>
</svg>
