<svg width="15" height="15" viewBox="0 0 15 15" fill="none" xmlns="http://www.w3.org/2000/svg">
<path d="M7.19629 14.5371C8.14876 14.5371 9.04427 14.3548 9.88281 13.9902C10.7259 13.6257 11.4688 13.1221 12.1113 12.4795C12.7539 11.8369 13.2575 11.0964 13.6221 10.2578C13.9867 9.41471 14.1689 8.51693 14.1689 7.56445C14.1689 6.61198 13.9867 5.71647 13.6221 4.87793C13.2575 4.03483 12.7539 3.29199 12.1113 2.64941C11.4688 2.00684 10.7259 1.50326 9.88281 1.13867C9.03971 0.774089 8.14193 0.591797 7.18945 0.591797C6.23698 0.591797 5.33919 0.774089 4.49609 1.13867C3.65755 1.50326 2.91699 2.00684 2.27441 2.64941C1.63639 3.29199 1.13509 4.03483 0.770508 4.87793C0.405924 5.71647 0.223633 6.61198 0.223633 7.56445C0.223633 8.51693 0.405924 9.41471 0.770508 10.2578C1.13509 11.0964 1.63867 11.8369 2.28125 12.4795C2.92383 13.1221 3.66439 13.6257 4.50293 13.9902C5.34603 14.3548 6.24382 14.5371 7.19629 14.5371ZM7.19629 13.375C6.38965 13.375 5.63542 13.2246 4.93359 12.9238C4.23177 12.623 3.61426 12.2083 3.08105 11.6797C2.55241 11.1465 2.1377 10.529 1.83691 9.82715C1.54069 9.12533 1.39258 8.37109 1.39258 7.56445C1.39258 6.75781 1.54069 6.00358 1.83691 5.30176C2.1377 4.59993 2.55241 3.98242 3.08105 3.44922C3.6097 2.91602 4.22493 2.5013 4.92676 2.20508C5.62858 1.9043 6.38281 1.75391 7.18945 1.75391C7.99609 1.75391 8.75033 1.9043 9.45215 2.20508C10.1585 2.5013 10.776 2.91602 11.3047 3.44922C11.8379 3.98242 12.2549 4.59993 12.5557 5.30176C12.8564 6.00358 13.0068 6.75781 13.0068 7.56445C13.0068 8.37109 12.8564 9.12533 12.5557 9.82715C12.2594 10.529 11.8447 11.1465 11.3115 11.6797C10.7783 12.2083 10.1608 12.623 9.45898 12.9238C8.75716 13.2246 8.00293 13.375 7.19629 13.375ZM3.47754 6.21094H10.9287C11.0791 6.21094 11.2021 6.16764 11.2979 6.08105C11.3981 5.98991 11.4482 5.8737 11.4482 5.73242C11.4482 5.58659 11.3981 5.47038 11.2979 5.38379C11.2021 5.29264 11.0791 5.24707 10.9287 5.24707H3.47754C3.32715 5.24707 3.20182 5.29264 3.10156 5.38379C3.00586 5.47038 2.95801 5.58659 2.95801 5.73242C2.95801 5.8737 3.00586 5.98991 3.10156 6.08105C3.20182 6.16764 3.32715 6.21094 3.47754 6.21094ZM4.48926 8.47363H9.91699C10.0674 8.47363 10.1904 8.43034 10.2861 8.34375C10.3864 8.25716 10.4365 8.14095 10.4365 7.99512C10.4365 7.84928 10.3864 7.73307 10.2861 7.64648C10.1904 7.55534 10.0674 7.50977 9.91699 7.50977H4.48926C4.33887 7.50977 4.21354 7.55534 4.11328 7.64648C4.01758 7.73307 3.96973 7.84928 3.96973 7.99512C3.96973 8.14095 4.01758 8.25716 4.11328 8.34375C4.21354 8.43034 4.33887 8.47363 4.48926 8.47363ZM5.54883 10.7432H8.86426C9.01465 10.7432 9.1377 10.6999 9.2334 10.6133C9.3291 10.5221 9.37695 10.4059 9.37695 10.2646C9.37695 10.1188 9.3291 10.0026 9.2334 9.91602C9.1377 9.82487 9.01465 9.7793 8.86426 9.7793H5.54883C5.39388 9.7793 5.26855 9.82487 5.17285 9.91602C5.07715 10.0026 5.0293 10.1188 5.0293 10.2646C5.0293 10.4059 5.07715 10.5221 5.17285 10.6133C5.26855 10.6999 5.39388 10.7432 5.54883 10.7432Z" fill="black"/>
</svg>
