<svg width="18" height="17" viewBox="0 0 18 17" fill="none" xmlns="http://www.w3.org/2000/svg">
<path d="M3.62402 16.8721C2.6748 16.8721 1.95703 16.6289 1.4707 16.1426C0.984375 15.6621 0.741211 14.9531 0.741211 14.0156V3.31934C0.741211 2.37598 0.984375 1.66406 1.4707 1.18359C1.95703 0.703125 2.6748 0.462891 3.62402 0.462891H14.2676C15.2168 0.462891 15.9346 0.703125 16.4209 1.18359C16.9072 1.66406 17.1504 2.37598 17.1504 3.31934V14.0156C17.1504 14.9531 16.9072 15.6621 16.4209 16.1426C15.9346 16.6289 15.2168 16.8721 14.2676 16.8721H3.62402ZM3.72949 15.1406H14.1621C14.5664 15.1406 14.877 15.0352 15.0938 14.8242C15.3105 14.6133 15.4189 14.2939 15.4189 13.8662V3.45996C15.4189 3.03809 15.3105 2.72168 15.0938 2.51074C14.877 2.2998 14.5664 2.19434 14.1621 2.19434H3.72949C3.31934 2.19434 3.00586 2.2998 2.78906 2.51074C2.57812 2.72168 2.47266 3.03809 2.47266 3.45996V13.8662C2.47266 14.2939 2.57812 14.6133 2.78906 14.8242C3.00586 15.0352 3.31934 15.1406 3.72949 15.1406ZM13.4941 8.64551C13.4941 8.86816 13.3975 9.07617 13.2041 9.26953L10.2334 12.2051C10.0869 12.3516 9.9082 12.4248 9.69727 12.4248C9.49805 12.4248 9.33105 12.3545 9.19629 12.2139C9.06152 12.0732 8.99414 11.9004 8.99414 11.6953C8.99414 11.4785 9.07031 11.3027 9.22266 11.168L10.2861 10.1484L11.2793 9.33984L9.46875 9.41895H5.16211C4.93945 9.41895 4.75781 9.3457 4.61719 9.19922C4.47656 9.05273 4.40625 8.86816 4.40625 8.64551C4.40625 8.42285 4.47656 8.23828 4.61719 8.0918C4.75781 7.93945 4.93945 7.86328 5.16211 7.86328H9.46875L11.2705 7.94238L10.2773 7.14258L9.22266 6.12305C9.07031 5.97656 8.99414 5.80078 8.99414 5.5957C8.99414 5.38477 9.06152 5.21191 9.19629 5.07715C9.33105 4.94238 9.49805 4.875 9.69727 4.875C9.9082 4.875 10.0869 4.94531 10.2334 5.08594L13.2041 8.02148C13.3975 8.21484 13.4941 8.42285 13.4941 8.64551Z" fill="black"/>
</svg>
