<svg width="19" height="14" viewBox="0 0 19 14" fill="none" xmlns="http://www.w3.org/2000/svg">
<path d="M6.94629 2.10156C6.70605 2.10156 6.50391 2.02246 6.33984 1.86426C6.18164 1.7002 6.10254 1.50098 6.10254 1.2666C6.10254 1.03223 6.18457 0.835938 6.34863 0.677734C6.5127 0.513672 6.71191 0.431641 6.94629 0.431641H18.0293C18.2637 0.431641 18.4629 0.513672 18.627 0.677734C18.791 0.835938 18.873 1.03223 18.873 1.2666C18.873 1.50684 18.791 1.70605 18.627 1.86426C18.4629 2.02246 18.2637 2.10156 18.0293 2.10156H6.94629ZM6.94629 7.49805C6.70605 7.49805 6.50391 7.41895 6.33984 7.26074C6.18164 7.09668 6.10254 6.89746 6.10254 6.66309C6.10254 6.42871 6.18457 6.23242 6.34863 6.07422C6.5127 5.91016 6.71191 5.82812 6.94629 5.82812H18.0293C18.2637 5.82812 18.4629 5.91016 18.627 6.07422C18.791 6.23242 18.873 6.42871 18.873 6.66309C18.873 6.89746 18.791 7.09668 18.627 7.26074C18.4629 7.41895 18.2637 7.49805 18.0293 7.49805H6.94629ZM6.94629 12.8945C6.70605 12.8945 6.50391 12.8154 6.33984 12.6572C6.18164 12.499 6.10254 12.3027 6.10254 12.0684C6.10254 11.8281 6.18457 11.6289 6.34863 11.4707C6.5127 11.3066 6.71191 11.2246 6.94629 11.2246H18.0293C18.2637 11.2246 18.4629 11.3066 18.627 11.4707C18.791 11.6348 18.873 11.834 18.873 12.0684C18.873 12.3027 18.791 12.499 18.627 12.6572C18.4629 12.8154 18.2637 12.8945 18.0293 12.8945H6.94629ZM1.73438 2.25977C1.45898 2.25977 1.22461 2.16309 1.03125 1.96973C0.837891 1.77051 0.741211 1.53613 0.741211 1.2666C0.741211 0.991211 0.837891 0.756836 1.03125 0.563477C1.22461 0.370117 1.45898 0.273438 1.73438 0.273438H3.2373C3.50684 0.273438 3.73828 0.370117 3.93164 0.563477C4.13086 0.756836 4.23047 0.991211 4.23047 1.2666C4.23047 1.53613 4.13086 1.77051 3.93164 1.96973C3.73828 2.16309 3.50684 2.25977 3.2373 2.25977H1.73438ZM1.73438 7.65625C1.45898 7.65625 1.22461 7.55957 1.03125 7.36621C0.837891 7.17285 0.741211 6.93848 0.741211 6.66309C0.741211 6.3877 0.837891 6.15332 1.03125 5.95996C1.22461 5.7666 1.45898 5.66992 1.73438 5.66992H3.2373C3.50684 5.66992 3.73828 5.7666 3.93164 5.95996C4.13086 6.15332 4.23047 6.3877 4.23047 6.66309C4.23047 6.93848 4.13086 7.17285 3.93164 7.36621C3.73828 7.55957 3.50684 7.65625 3.2373 7.65625H1.73438ZM1.73438 13.0527C1.45898 13.0527 1.22461 12.9561 1.03125 12.7627C0.837891 12.5693 0.741211 12.3379 0.741211 12.0684C0.741211 11.7871 0.837891 11.5498 1.03125 11.3564C1.22461 11.1631 1.45898 11.0664 1.73438 11.0664H3.2373C3.50684 11.0664 3.73828 11.1631 3.93164 11.3564C4.13086 11.5498 4.23047 11.7871 4.23047 12.0684C4.23047 12.3379 4.13086 12.5693 3.93164 12.7627C3.73828 12.9561 3.50684 13.0527 3.2373 13.0527H1.73438Z" fill="black"/>
</svg>
